# Blender v2.72 (sub 0) OBJ File: ''
# www.blender.org
o 0a565e37
v -2.357956 0.605276 5.953266
v -2.357953 0.573903 5.953036
v -2.171112 0.605288 5.953243
v -2.171109 0.573914 5.953012
v -2.515487 0.486056 5.951637
v -2.330148 0.504105 5.951726
v -2.512281 0.458125 5.236714
v -2.326977 0.476172 5.236828
v -2.481511 0.322916 5.951209
v -2.481514 0.354290 5.951439
v -2.668355 0.322910 5.951234
v -2.668358 0.354284 5.951465
v -0.996111 0.708211 -3.571782
v -6.052421 0.708215 -3.639691
v -6.034137 0.702297 -2.046283
v -6.015854 0.694631 0.015790
v -6.065536 0.686967 2.077069
v -6.103041 0.675003 5.295147
v 1.062173 0.676318 5.031533
v 4.522744 0.708499 -3.578929
v 2.020858 0.708606 -3.641014
v -1.994928 0.675645 5.175744
v 4.586777 0.684225 2.950144
v 4.484567 0.676440 5.043460
v 4.571619 0.692818 0.638916
v -1.078333 0.596238 5.237486
v -0.944742 0.596237 5.237475
v -1.078384 0.595446 5.449162
v -2.158692 0.595398 5.449337
v -2.158715 0.594214 5.766477
v -1.078424 0.594270 5.766283
v -2.158779 0.593324 6.006256
v -1.078453 0.593378 6.006084
v -0.944799 0.594275 5.766273
v -0.944862 0.593385 6.006053
v -0.944777 0.595451 5.449153
v -2.158658 0.596184 5.237660
v -1.078428 0.635055 5.766584
v -2.158719 0.634999 5.766778
v -1.078459 0.649850 6.006501
v -1.035935 0.635061 5.766580
v -0.944820 0.637127 5.843137
v -0.944800 0.603688 5.766342
v -0.944790 0.635695 5.595517
v -1.078388 0.636231 5.449464
v -2.158696 0.636183 5.449638
v -2.158687 0.650184 5.268541
v -2.144761 0.652651 5.238096
v -1.078338 0.652710 5.237904
v -0.944780 0.636236 5.449455
v -0.944747 0.652709 5.237892
v -2.158784 0.649796 6.006673
v -0.944867 0.649857 6.006470
v -0.977960 0.561648 5.258310
v -2.125441 0.561595 5.258501
v -0.977964 0.596159 5.258564
v -2.125444 0.596105 5.258756
v -0.978056 0.558952 5.984724
v -0.978059 0.593462 5.984978
v -2.125535 0.558893 5.984912
v -2.125539 0.593403 5.985167
v -2.668252 0.356945 5.235985
v -2.481409 0.356946 5.235957
v -2.668249 0.325572 5.235753
v -2.481406 0.325572 5.235725
v -2.171003 0.576576 5.237534
v -2.357847 0.576564 5.237556
v -2.171006 0.607949 5.237764
v -2.357851 0.607937 5.237787
v -2.635928 0.204473 5.950365
v -2.822017 0.190344 5.950282
v -2.635822 0.207134 5.234886
v -2.821913 0.193006 5.234804
v -2.512387 0.455464 5.952195
v -2.509197 0.426749 5.237267
v -2.327080 0.473518 5.952289
v -2.323875 0.444798 5.237359
v -2.791808 0.074573 5.233944
v -2.978652 0.074561 5.233967
v -2.791811 0.105946 5.234176
v -2.978655 0.105934 5.234199
v -2.791896 0.071920 5.949403
v -2.791899 0.103292 5.949635
v -2.978756 0.071913 5.949428
v -2.978759 0.103285 5.949660
v -2.824326 0.221716 5.950522
v -2.638237 0.235852 5.950583
v -2.824222 0.224379 5.235041
v -2.638131 0.238513 5.235103
v -2.158662 0.638538 5.237971
v -2.158687 0.650184 5.268541
v -2.144761 0.652651 5.238096
v -0.944867 0.649857 6.006470
v -0.944862 0.593385 6.006053
v -0.944820 0.637127 5.843137
v -0.944799 0.594275 5.766273
v -0.944800 0.603688 5.766342
v -0.944777 0.595451 5.449153
v -0.944790 0.635695 5.595517
v -0.944780 0.636236 5.449455
v -0.944742 0.596237 5.237475
v -0.944747 0.652709 5.237892
v -2.125535 0.558893 5.984912
v -2.125539 0.593403 5.985167
v -2.125441 0.561595 5.258501
v -2.125444 0.596105 5.258756
v -2.481409 0.356946 5.235957
v -2.481472 0.337857 5.518585
v -2.481406 0.325572 5.235725
v -2.481469 0.306484 5.518354
v -2.486090 0.363452 5.808563
v -2.481476 0.332858 5.808343
v -2.481469 0.306484 5.518354
v -2.481514 0.354290 5.951439
v -2.481476 0.332858 5.808343
v -2.481511 0.322916 5.951209
v -2.357910 0.563295 5.642091
v -2.357953 0.573903 5.953036
v -2.357913 0.594668 5.642321
v -2.357956 0.605276 5.953266
v -2.357888 0.560776 5.475683
v -2.357910 0.563295 5.642091
v -2.357891 0.592149 5.475914
v -2.357888 0.560776 5.475683
v -2.357847 0.576564 5.237556
v -2.357851 0.607937 5.237787
v -2.327080 0.473518 5.952289
v -2.330148 0.504105 5.951726
v -2.512387 0.455464 5.952195
v -2.515487 0.486056 5.951637
v -2.635928 0.204473 5.950365
v -2.638237 0.235852 5.950583
v -2.822017 0.190344 5.950282
v -2.824326 0.221716 5.950522
v -2.978694 0.047350 5.591517
v -2.978697 0.078723 5.591749
v -2.978652 0.074561 5.233967
v -2.978655 0.105934 5.234199
v -2.978694 0.047350 5.591517
v -2.978756 0.071913 5.949428
v -2.978759 0.103285 5.949660
v -2.171006 0.607949 5.237764
v -2.171032 0.592161 5.475891
v -2.171003 0.576576 5.237534
v -2.171029 0.560788 5.475660
v -2.171029 0.560788 5.475660
v -2.171048 0.563301 5.642066
v -2.171052 0.594675 5.642296
v -2.171048 0.563301 5.642066
v -2.171109 0.573914 5.953012
v -2.171112 0.605288 5.953243
v -2.665994 0.304617 5.808152
v -2.668355 0.322910 5.951234
v -2.669874 0.335984 5.808396
v -2.668358 0.354284 5.951465
v -2.665994 0.304617 5.808152
v -2.668313 0.306479 5.518379
v -2.668316 0.337851 5.518609
v -2.668252 0.356945 5.235985
v -2.668249 0.325572 5.235753
v -2.668313 0.306479 5.518379
v -2.512281 0.458125 5.236714
v -2.326977 0.476172 5.236828
v -2.509197 0.426749 5.237267
v -2.323875 0.444798 5.237359
v -2.635822 0.207134 5.234886
v -2.821913 0.193006 5.234804
v -2.638131 0.238513 5.235103
v -2.824222 0.224379 5.235041
v -0.978059 0.593462 5.984978
v -0.978056 0.558952 5.984724
v -0.977964 0.596159 5.258564
v -0.977960 0.561648 5.258310
v -2.791850 0.047363 5.591494
v -2.791808 0.074573 5.233944
v -2.791853 0.078735 5.591726
v -2.791811 0.105946 5.234176
v -2.791850 0.047363 5.591494
v -2.791896 0.071920 5.949403
v -2.791899 0.103292 5.949635
v -2.638237 0.235852 5.950583
v -2.635928 0.204473 5.950365
v -2.638131 0.238513 5.235103
v -2.635822 0.207134 5.234886
v -2.125539 0.593403 5.985167
v -0.978059 0.593462 5.984978
v -2.125444 0.596105 5.258756
v -0.977964 0.596159 5.258564
v -2.509197 0.426749 5.237267
v -2.512387 0.455464 5.952195
v -2.512281 0.458125 5.236714
v -2.515487 0.486056 5.951637
v -2.822017 0.190344 5.950282
v -2.824326 0.221716 5.950522
v -2.821913 0.193006 5.234804
v -2.824222 0.224379 5.235041
v -0.978056 0.558952 5.984724
v -2.125535 0.558893 5.984912
v -0.977960 0.561648 5.258310
v -2.125441 0.561595 5.258501
v -2.330148 0.504105 5.951726
v -2.327080 0.473518 5.952289
v -2.326977 0.476172 5.236828
v -2.323875 0.444798 5.237359
v -2.978655 0.105934 5.234199
v -2.978697 0.078723 5.591749
v -2.791811 0.105946 5.234176
v -2.791853 0.078735 5.591726
v -2.978759 0.103285 5.949660
v -2.791899 0.103292 5.949635
v -2.668355 0.322910 5.951234
v -2.665994 0.304617 5.808152
v -2.481511 0.322916 5.951209
v -2.481476 0.332858 5.808343
v -2.481469 0.306484 5.518354
v -2.668313 0.306479 5.518379
v -2.668249 0.325572 5.235753
v -2.481406 0.325572 5.235725
v -2.357953 0.573903 5.953036
v -2.357910 0.563295 5.642091
v -2.171109 0.573914 5.953012
v -2.171048 0.563301 5.642066
v -2.357888 0.560776 5.475683
v -2.171029 0.560788 5.475660
v -2.357847 0.576564 5.237556
v -2.171003 0.576576 5.237534
v -2.158662 0.638538 5.237971
v -2.158658 0.596184 5.237660
v -2.158687 0.650184 5.268541
v -2.158692 0.595398 5.449337
v -2.158696 0.636183 5.449638
v -2.158715 0.594214 5.766477
v -2.158719 0.634999 5.766778
v -2.158779 0.593324 6.006256
v -2.158784 0.649796 6.006673
v -2.791808 0.074573 5.233944
v -2.791850 0.047363 5.591494
v -2.978652 0.074561 5.233967
v -2.978694 0.047350 5.591517
v -2.791896 0.071920 5.949403
v -2.978756 0.071913 5.949428
v -2.668252 0.356945 5.235985
v -2.668316 0.337851 5.518609
v -2.481409 0.356946 5.235957
v -2.481472 0.337857 5.518585
v -2.486090 0.363452 5.808563
v -2.669874 0.335984 5.808396
v -2.668358 0.354284 5.951465
v -2.481514 0.354290 5.951439
v -2.357851 0.607937 5.237787
v -2.357891 0.592149 5.475914
v -2.171006 0.607949 5.237764
v -2.171032 0.592161 5.475891
v -2.357913 0.594668 5.642321
v -2.171052 0.594675 5.642296
v -2.357956 0.605276 5.953266
v -2.171112 0.605288 5.953243
v -2.158779 0.593324 6.006256
v -1.078453 0.593378 6.006084
v -2.158784 0.649796 6.006673
v -1.078459 0.649850 6.006501
v -0.944862 0.593385 6.006053
v -0.944867 0.649857 6.006470
v -0.944742 0.596237 5.237475
v -1.078333 0.596238 5.237486
v -0.944747 0.652709 5.237892
v -1.078338 0.652710 5.237904
v -2.158658 0.596184 5.237660
v -2.144761 0.652651 5.238096
v -2.158662 0.638538 5.237971
vt 0.742549 0.868259
vt 0.742549 0.865350
vt 0.759870 0.868259
vt 0.759870 0.865350
vt 0.560740 0.870322
vt 0.560743 0.853060
vt 0.627065 0.870322
vt 0.627067 0.853063
vt 0.863203 0.862978
vt 0.863203 0.865886
vt 0.845882 0.862978
vt 0.845882 0.865886
vt 0.480054 0.828587
vt 0.013509 0.834930
vt 0.015172 0.687905
vt 0.016827 0.497635
vt 0.000202 0.010715
vt 0.008702 0.010504
vt 0.669844 0.034719
vt 0.989283 0.829163
vt 0.758449 0.834929
vt 0.032002 0.000202
vt 0.995092 0.226718
vt 0.985629 0.033567
vt 0.999798 0.829180
vt 0.185201 0.935504
vt 0.185200 0.947889
vt 0.165578 0.935497
vt 0.165578 0.835350
vt 0.136178 0.835343
vt 0.136180 0.935488
vt 0.113950 0.835334
vt 0.113950 0.935482
vt 0.136179 0.947875
vt 0.113951 0.947866
vt 0.165577 0.947882
vt 0.185201 0.835356
vt 0.100558 0.857803
vt 0.000225 0.857854
vt 0.100253 0.835535
vt 0.104517 0.857823
vt 0.112741 0.850336
vt 0.113546 0.857951
vt 0.112787 0.873916
vt 0.100289 0.887335
vt 0.000220 0.887213
vt 0.000202 0.904030
vt 0.001489 0.906861
vt 0.100204 0.907000
vt 0.112669 0.887426
vt 0.112569 0.907067
vt 0.000202 0.835594
vt 0.112486 0.835334
vt 0.734201 0.867554
vt 0.627823 0.867554
vt 0.734201 0.864355
vt 0.627823 0.864355
vt 0.466529 0.864657
vt 0.466529 0.867856
vt 0.360156 0.864657
vt 0.360156 0.867856
vt 0.466933 0.864657
vt 0.484254 0.864657
vt 0.466933 0.867565
vt 0.484254 0.867565
vt 0.845476 0.869199
vt 0.828156 0.869199
vt 0.845476 0.866290
vt 0.828156 0.866290
vt 0.494009 0.870360
vt 0.494009 0.853060
vt 0.560335 0.870360
vt 0.560336 0.853060
vt 0.761422 0.853038
vt 0.827751 0.853038
vt 0.761422 0.870298
vt 0.827752 0.870299
vt 0.863203 0.869199
vt 0.845882 0.869199
vt 0.863203 0.866290
vt 0.845882 0.866290
vt 0.845478 0.862978
vt 0.845478 0.865886
vt 0.828156 0.862978
vt 0.828156 0.865886
vt 0.761422 0.852634
vt 0.761423 0.835334
vt 0.827748 0.852634
vt 0.827750 0.835334
vt 0.746743 0.858155
vt 0.743710 0.858155
vt 0.746267 0.856381
vt 0.360156 0.864253
vt 0.360175 0.859018
vt 0.375292 0.863016
vt 0.382403 0.859018
vt 0.382400 0.859890
vt 0.411801 0.859017
vt 0.398246 0.862798
vt 0.411787 0.862798
vt 0.431424 0.859017
vt 0.431405 0.864253
vt 0.360167 0.871459
vt 0.360156 0.868260
vt 0.427507 0.871459
vt 0.427496 0.868260
vt 0.759813 0.861619
vt 0.733553 0.861619
vt 0.759638 0.858716
vt 0.733378 0.858716
vt 0.828156 0.855893
vt 0.828436 0.853038
vt 0.855145 0.855933
vt 0.855430 0.853038
vt 0.869284 0.855933
vt 0.856005 0.855933
vt 0.869109 0.853070
vt 0.855834 0.853029
vt 0.857116 0.851465
vt 0.828274 0.851464
vt 0.856996 0.848559
vt 0.828154 0.848559
vt 0.711072 0.870866
vt 0.695644 0.870866
vt 0.711007 0.867958
vt 0.695579 0.867958
vt 0.458666 0.861921
vt 0.458837 0.859017
vt 0.480789 0.861921
vt 0.480960 0.859017
vt 0.868125 0.859671
vt 0.868116 0.862521
vt 0.850865 0.859671
vt 0.850854 0.862521
vt 0.493598 0.853278
vt 0.493605 0.856195
vt 0.476298 0.853278
vt 0.476304 0.856194
vt 0.828154 0.841539
vt 0.828353 0.838638
vt 0.861395 0.841539
vt 0.861595 0.838638
vt 0.732974 0.861616
vt 0.699717 0.861616
vt 0.732754 0.858716
vt 0.699497 0.858716
vt 0.850450 0.862574
vt 0.828327 0.862574
vt 0.850279 0.859671
vt 0.828156 0.859671
vt 0.482426 0.867969
vt 0.482361 0.870877
vt 0.466998 0.867969
vt 0.466933 0.870877
vt 0.857117 0.845249
vt 0.856996 0.848155
vt 0.828274 0.845249
vt 0.828154 0.848155
vt 0.869188 0.859240
vt 0.855815 0.859219
vt 0.868796 0.856337
vt 0.855424 0.856337
vt 0.828157 0.859267
vt 0.828156 0.856337
vt 0.855021 0.859267
vt 0.855020 0.856358
vt 0.458262 0.859017
vt 0.458088 0.861921
vt 0.432003 0.859017
vt 0.431828 0.861921
vt 0.742549 0.862023
vt 0.759808 0.862023
vt 0.742552 0.864946
vt 0.759813 0.864946
vt 0.761011 0.855977
vt 0.743710 0.855976
vt 0.761018 0.853060
vt 0.743717 0.853060
vt 0.627823 0.871158
vt 0.627834 0.867958
vt 0.695163 0.871158
vt 0.695175 0.867958
vt 0.828154 0.841943
vt 0.861395 0.841943
vt 0.828353 0.844845
vt 0.861594 0.844845
vt 0.861631 0.835334
vt 0.861411 0.838234
vt 0.828374 0.835334
vt 0.828154 0.838234
vt 0.494000 0.873681
vt 0.494009 0.870764
vt 0.560326 0.873681
vt 0.560336 0.870764
vt 0.185605 0.835348
vt 0.291978 0.835334
vt 0.185634 0.902688
vt 0.292007 0.902674
vt 0.627129 0.873649
vt 0.560800 0.873577
vt 0.627066 0.870726
vt 0.560740 0.870726
vt 0.627834 0.874478
vt 0.627823 0.871562
vt 0.694161 0.874478
vt 0.694150 0.871562
vt 0.292411 0.941707
vt 0.292412 0.835334
vt 0.359752 0.941727
vt 0.359752 0.835354
vt 0.761422 0.873553
vt 0.761484 0.870703
vt 0.827745 0.873625
vt 0.827814 0.870703
vt 0.560507 0.852656
vt 0.527266 0.852655
vt 0.560512 0.835335
vt 0.527270 0.835334
vt 0.494009 0.852656
vt 0.494014 0.835334
vt 0.427099 0.835334
vt 0.440471 0.835570
vt 0.427078 0.852654
vt 0.440352 0.852874
vt 0.467345 0.852662
vt 0.467333 0.835341
vt 0.493593 0.835334
vt 0.493605 0.852654
vt 0.627823 0.835334
vt 0.656665 0.835341
vt 0.627823 0.852654
vt 0.656665 0.852664
vt 0.672093 0.835345
vt 0.672093 0.852667
vt 0.694216 0.835352
vt 0.694216 0.852672
vt 0.699078 0.860024
vt 0.699093 0.863950
vt 0.696249 0.858934
vt 0.679470 0.863951
vt 0.679456 0.860170
vt 0.650070 0.863951
vt 0.650056 0.860170
vt 0.627842 0.863951
vt 0.627823 0.858716
vt 0.627419 0.852656
vt 0.594177 0.852656
vt 0.627414 0.835335
vt 0.594173 0.835335
vt 0.560920 0.852656
vt 0.560916 0.835334
vt 0.426656 0.852684
vt 0.400396 0.852666
vt 0.426674 0.835363
vt 0.400414 0.835345
vt 0.373428 0.835748
vt 0.373533 0.852974
vt 0.360166 0.852654
vt 0.360156 0.835334
vt 0.761013 0.852655
vt 0.738890 0.852656
vt 0.761018 0.835334
vt 0.738894 0.835334
vt 0.723462 0.852656
vt 0.723467 0.835334
vt 0.694620 0.852656
vt 0.694624 0.835335
vt 0.360156 0.853378
vt 0.460304 0.853378
vt 0.360156 0.858614
vt 0.460303 0.858613
vt 0.472688 0.853378
vt 0.472688 0.858614
vt 0.740355 0.858312
vt 0.727971 0.858312
vt 0.740355 0.853077
vt 0.727971 0.853076
vt 0.627823 0.858312
vt 0.629111 0.853077
vt 0.627823 0.854386
vn 0.000100 -0.007300 1.000000
vn -0.096800 0.994500 -0.039300
vn 0.000100 -0.007400 1.000000
vn -0.000000 1.000000 0.003700
vn -0.000000 1.000000 0.003600
vn -0.000100 1.000000 0.003500
vn -0.000100 1.000000 0.003700
vn -0.000000 -1.000000 -0.003700
vn 0.000100 -1.000000 -0.003700
vn -0.000100 0.998100 -0.061500
vn 0.025300 0.998100 -0.057000
vn 0.300100 0.874600 -0.380800
vn 0.320900 0.930900 0.174400
vn -0.000100 1.000000 0.003600
vn -0.000000 0.997000 0.077100
vn -0.000600 0.996800 0.080500
vn -0.000000 0.997000 0.077700
vn 0.000000 0.997000 0.077600
vn -0.000100 0.998100 -0.061600
vn -0.000100 0.997000 -0.077700
vn -0.000200 0.007400 -1.000000
vn 0.000200 -0.007400 1.000000
vn -0.000100 0.007400 -1.000000
vn -0.000100 0.007300 -1.000000
vn 0.075700 -0.997100 -0.003700
vn 0.096900 -0.994500 0.040400
vn 0.096800 -0.994500 0.040400
vn -0.075700 0.997100 0.003700
vn -0.687000 0.678900 -0.259200
vn 1.000000 0.000100 0.000300
vn 1.000000 0.000000 0.000300
vn 1.000000 0.000100 0.000200
vn 1.000000 0.000100 0.000100
vn -1.000000 -0.000100 -0.000100
vn 0.988800 0.149100 0.002600
vn 1.000000 0.000100 0.000000
vn 0.988600 0.149200 -0.022100
vn -1.000000 -0.000100 -0.000200
vn -0.002300 0.018200 0.999800
vn -0.002200 0.018000 0.999800
vn 0.000100 -0.007000 1.000000
vn 0.000300 -0.007600 1.000000
vn -0.992400 -0.122800 -0.000700
vn -0.999900 -0.000200 0.010600
vn -0.992400 -0.122800 0.007200
vn -1.000000 -0.000100 -0.005400
vn 0.002300 -0.017400 -0.999800
vn 0.002100 -0.016700 -0.999900
vn -0.000100 0.006900 -1.000000
vn -0.000200 0.007500 -1.000000
vn 0.997300 0.073400 0.000400
vn -0.995200 -0.097800 -0.000500
vn -0.994900 -0.100800 -0.000500
vn -0.997300 -0.073400 -0.000400
vn 0.995000 0.099800 0.000500
vn 0.995100 0.098400 0.000500
vn -0.000100 0.997100 0.075900
vn -0.000100 0.997700 -0.068500
vn -0.000000 0.997700 -0.068400
vn 0.000000 -0.991900 0.126800
vn 0.151000 -0.986200 -0.068600
vn 0.150600 -0.984500 0.089500
vn 0.000000 -1.000000 -0.006400
vn 0.000000 -0.997700 -0.067400
vn 0.000100 -0.999400 0.034100
vn 0.000000 -0.999400 0.034100
vn 0.000000 -0.999900 0.015100
vn 0.000100 -0.999900 0.015100
vn 0.000100 -0.997800 -0.066200
vn -1.000000 -0.000100 -0.000800
vn -1.000000 -0.000400 -0.000200
vn -1.000000 -0.000100 -0.000300
vn 0.000100 -0.997100 -0.075900
vn 0.000100 -0.997700 0.068500
vn 0.000000 -0.997700 0.068500
vn 0.000000 0.997700 0.067400
vn -0.000000 0.996100 -0.087900
vn -0.147800 0.989000 0.005600
vn -0.146600 0.981400 -0.124000
vn -0.000000 0.998000 0.064000
vn -0.000100 0.997800 0.066200
vn -0.000100 0.999900 -0.015100
vn -0.000000 0.999900 -0.015100
vn -0.000000 0.999400 -0.034100
vn -0.000100 0.999400 -0.034100
vn -0.000200 0.007800 -1.000000
vn 0.001500 0.007400 -1.000000
s off
f 1/1/1 2/2/1 3/3/1
f 4/4/1 3/3/1 2/2/1
f 5/5/2 6/6/2 7/7/2
f 8/8/2 7/7/2 6/6/2
f 9/9/1 10/10/1 11/11/1
f 12/12/3 11/11/3 10/10/3
f 13/13/4 14/14/4 15/15/4
f 16/16/4 17/17/4 18/18/4
f 16/16/4 18/18/4 19/19/4
f 15/15/4 16/16/4 19/19/4
f 15/15/4 19/19/4 20/20/4
f 13/13/4 15/15/4 20/20/4
f 13/13/5 20/20/5 21/21/5
f 18/18/6 22/22/6 19/19/6
f 19/19/4 23/23/4 20/20/4
f 19/19/4 24/24/4 23/23/4
f 23/23/7 25/25/7 20/20/7
f 26/26/8 27/27/8 28/28/8
f 28/28/8 29/29/8 26/26/8
f 29/29/8 28/28/8 30/30/8
f 31/31/9 30/30/9 28/28/9
f 30/30/9 31/31/9 32/32/9
f 33/33/8 32/32/8 31/31/8
f 31/31/8 34/34/8 33/33/8
f 35/35/9 33/33/9 34/34/9
f 34/34/8 31/31/8 36/36/8
f 28/28/8 36/36/8 31/31/8
f 36/36/8 28/28/8 27/27/8
f 37/37/8 26/26/8 29/29/8
f 38/38/10 39/39/10 40/40/10
f 40/40/10 41/41/10 38/38/10
f 41/41/11 40/40/11 42/42/11
f 42/42/12 43/43/12 41/41/12
f 44/44/13 41/41/13 43/43/13
f 44/44/14 38/38/14 41/41/14
f 38/38/4 44/44/4 45/45/4
f 45/45/4 46/46/4 38/38/4
f 45/45/15 47/47/15 46/46/15
f 47/47/16 45/45/16 48/48/16
f 49/49/17 48/48/17 45/45/17
f 45/45/17 50/50/17 49/49/17
f 51/51/18 49/49/18 50/50/18
f 39/39/7 38/38/7 46/46/7
f 50/50/4 45/45/4 44/44/4
f 52/52/19 40/40/19 39/39/19
f 53/53/20 42/42/20 40/40/20
f 54/54/21 55/55/21 56/56/21
f 57/57/21 56/56/21 55/55/21
f 58/58/22 59/59/22 60/60/22
f 61/61/22 60/60/22 59/59/22
f 62/62/23 63/63/23 64/64/23
f 65/65/21 64/64/21 63/63/21
f 66/66/24 67/67/24 68/68/24
f 69/69/23 68/68/23 67/67/23
f 70/70/25 71/71/25 72/72/25
f 73/73/25 72/72/25 71/71/25
f 74/74/26 75/75/26 76/76/26
f 77/77/27 76/76/27 75/75/27
f 78/78/23 79/79/23 80/80/23
f 81/81/23 80/80/23 79/79/23
f 82/82/3 83/83/3 84/84/3
f 85/85/3 84/84/3 83/83/3
f 86/86/28 87/87/28 88/88/28
f 89/89/28 88/88/28 87/87/28
f 90/90/29 91/91/29 92/92/29
f 93/93/30 94/94/30 95/95/30
f 96/96/31 95/95/31 94/94/31
f 95/95/32 96/96/32 97/97/32
f 98/98/33 97/97/33 96/96/33
f 97/97/33 98/98/33 99/99/33
f 100/100/33 99/99/33 98/98/33
f 98/98/32 101/101/32 100/100/32
f 102/102/32 100/100/32 101/101/32
f 103/103/34 104/104/34 105/105/34
f 106/106/34 105/105/34 104/104/34
f 107/107/32 108/108/32 109/109/32
f 110/110/32 109/109/32 108/108/32
f 111/111/35 112/112/35 108/113/35
f 113/114/36 108/113/36 112/112/36
f 111/115/37 114/116/37 115/117/37
f 116/118/30 115/117/30 114/116/30
f 117/119/34 118/120/34 119/121/34
f 120/122/34 119/121/34 118/120/34
f 121/123/34 122/124/34 123/125/34
f 119/126/34 123/125/34 122/124/34
f 124/127/38 123/128/38 125/129/38
f 126/130/38 125/129/38 123/128/38
f 127/131/39 128/132/39 129/133/39
f 130/134/40 129/133/40 128/132/40
f 131/135/41 132/136/41 133/137/41
f 134/138/42 133/137/42 132/136/42
f 135/139/34 136/140/34 137/141/34
f 138/142/34 137/141/34 136/140/34
f 139/143/38 140/144/38 136/145/38
f 141/146/38 136/145/38 140/144/38
f 142/147/33 143/148/33 144/149/33
f 145/150/33 144/149/33 143/148/33
f 146/151/33 143/152/33 147/153/33
f 148/154/33 147/153/33 143/152/33
f 149/155/32 148/156/32 150/157/32
f 151/158/32 150/157/32 148/156/32
f 152/159/43 153/160/43 154/161/43
f 155/162/44 154/161/44 153/160/44
f 156/163/45 154/164/45 157/165/45
f 158/166/46 157/165/46 154/164/46
f 159/167/38 160/168/38 158/169/38
f 161/170/38 158/169/38 160/168/38
f 162/171/47 163/172/47 164/173/47
f 165/174/48 164/173/48 163/172/48
f 166/175/49 167/176/49 168/177/49
f 169/178/50 168/177/50 167/176/50
f 170/179/33 171/180/33 172/181/33
f 173/182/33 172/181/33 171/180/33
f 174/183/33 175/184/33 176/185/33
f 177/186/33 176/185/33 175/184/33
f 178/187/33 176/188/33 179/189/33
f 180/190/33 179/189/33 176/188/33
f 181/191/51 182/192/51 183/193/51
f 184/194/51 183/193/51 182/192/51
f 185/195/7 186/196/7 187/197/7
f 188/198/4 187/197/4 186/196/4
f 189/199/52 190/200/52 191/201/52
f 192/202/53 191/201/53 190/200/53
f 193/203/54 194/204/54 195/205/54
f 196/206/54 195/205/54 194/204/54
f 197/207/9 198/208/9 199/209/9
f 200/210/8 199/209/8 198/208/8
f 201/211/55 202/212/55 203/213/55
f 204/214/56 203/213/56 202/212/56
f 205/215/57 206/216/57 207/217/57
f 208/218/57 207/217/57 206/216/57
f 206/216/58 209/219/58 208/218/58
f 210/220/59 208/218/59 209/219/59
f 211/221/60 212/222/60 213/223/60
f 214/224/61 213/223/61 212/222/61
f 214/224/62 212/222/62 215/225/62
f 216/226/63 215/225/63 212/222/63
f 216/226/64 217/227/64 215/225/64
f 218/228/64 215/225/64 217/227/64
f 219/229/65 220/230/65 221/231/65
f 222/232/66 221/231/66 220/230/66
f 220/230/67 223/233/67 222/232/67
f 224/234/68 222/232/68 223/233/68
f 223/233/69 225/235/69 224/234/69
f 226/236/69 224/234/69 225/235/69
f 227/237/70 228/238/70 229/239/70
f 230/240/71 229/239/71 228/238/71
f 229/239/34 230/240/34 231/241/34
f 230/240/34 232/242/34 231/241/34
f 233/243/34 231/241/34 232/242/34
f 232/242/72 234/244/72 233/243/72
f 235/245/72 233/243/72 234/244/72
f 236/246/73 237/247/73 238/248/73
f 239/249/73 238/248/73 237/247/73
f 237/247/74 240/250/74 239/249/74
f 241/251/75 239/249/75 240/250/75
f 242/252/76 243/253/76 244/254/76
f 245/255/76 244/254/76 243/253/76
f 245/255/77 243/253/77 246/256/77
f 247/257/78 246/256/78 243/253/78
f 247/257/79 248/258/79 246/256/79
f 249/259/80 246/256/80 248/258/80
f 250/260/81 251/261/81 252/262/81
f 253/263/81 252/262/81 251/261/81
f 251/261/82 254/264/82 253/263/82
f 255/265/83 253/263/83 254/264/83
f 254/264/84 256/266/84 255/265/84
f 257/267/85 255/265/85 256/266/85
f 258/268/22 259/269/22 260/270/22
f 261/271/22 260/270/22 259/269/22
f 259/269/22 262/272/22 261/271/22
f 263/273/22 261/271/22 262/272/22
f 264/274/23 265/275/23 266/276/23
f 267/277/23 266/276/23 265/275/23
f 268/278/21 267/277/21 265/275/21
f 267/277/86 268/278/86 269/279/86
f 270/280/87 269/279/87 268/278/87
